<svg xmlns="http://www.w3.org/2000/svg" viewBox="0 0 169.44 37"><defs><style>.a{fill:#fff;}.b{fill:#81c926;}</style></defs><g transform="translate(-221.56 -29)"><rect class="a" width="58" height="37" rx="18.5" transform="translate(333 29)"/><path class="b" d="M126.744-14.313a5.488,5.488,0,0,0-1.852.312,4.292,4.292,0,0,0-1.521.917,4.478,4.478,0,0,0-1.034,1.5,5.249,5.249,0,0,0-.39,2.106,4.559,4.559,0,0,0,1.384,3.627,4.95,4.95,0,0,0,3.374,1.209,6.716,6.716,0,0,0,2.028-.273,12.458,12.458,0,0,0,1.521-.585,4.047,4.047,0,0,1,1.17,1.189,2.917,2.917,0,0,1,.39,1.541,2.731,2.731,0,0,1-1.521,2.477,8.466,8.466,0,0,1-4.212.878,12.966,12.966,0,0,1-4.446-.722,10.044,10.044,0,0,1-3.413-2.028,8.974,8.974,0,0,1-2.2-3.14,10.256,10.256,0,0,1-.78-4.056,11.23,11.23,0,0,1,.839-4.5,8.715,8.715,0,0,1,2.282-3.179,9.669,9.669,0,0,1,3.334-1.872,12.678,12.678,0,0,1,4-.624,7.78,7.78,0,0,1,4.329,1.014,3.038,3.038,0,0,1,1.521,2.613,2.846,2.846,0,0,1-.351,1.384,4.827,4.827,0,0,1-.819,1.112,12.677,12.677,0,0,0-1.6-.6A6.767,6.767,0,0,0,126.744-14.313ZM147.8-.507a4.385,4.385,0,0,1-1.6.7,9.5,9.5,0,0,1-2.379.273,7.965,7.965,0,0,1-2.632-.39,2.569,2.569,0,0,1-1.541-1.248q-.351-.663-.839-1.852t-1.033-2.652q-.546-1.463-1.131-3.14t-1.111-3.315q-.526-1.638-.956-3.159t-.7-2.691a4.833,4.833,0,0,1,1.462-.956,4.868,4.868,0,0,1,2.008-.41,4.07,4.07,0,0,1,2.243.566,3.511,3.511,0,0,1,1.306,2.126l1.521,5.967q.429,1.755.819,3.179t.585,2.2h.2q.741-2.886,1.56-6.4t1.482-6.9a6.2,6.2,0,0,1,1.5-.546,7.14,7.14,0,0,1,1.618-.2,4.261,4.261,0,0,1,2.3.585,2.2,2.2,0,0,1,.936,2.028,8.286,8.286,0,0,1-.293,1.814q-.292,1.189-.741,2.691t-1.053,3.179q-.6,1.677-1.229,3.276t-1.229,2.984Q148.272-1.4,147.8-.507Z" transform="translate(228 57)"/><path class="a" d="M18.018-5.655A5.489,5.489,0,0,1,15.8-1.014Q13.572.663,9.243.663A18.532,18.532,0,0,1,6.2.429,8.706,8.706,0,0,1,3.8-.293a4.293,4.293,0,0,1-1.56-1.229,2.809,2.809,0,0,1-.566-1.755,3,3,0,0,1,.39-1.579A3.949,3.949,0,0,1,3-5.928,15.549,15.549,0,0,0,5.6-4.817a10.664,10.664,0,0,0,3.374.487,3.94,3.94,0,0,0,1.852-.351,1.051,1.051,0,0,0,.643-.936A.979.979,0,0,0,11-6.474a4.336,4.336,0,0,0-1.56-.507l-1.17-.234A10.951,10.951,0,0,1,3.218-9.3,5.079,5.079,0,0,1,1.56-13.377a5.464,5.464,0,0,1,.624-2.613,5.475,5.475,0,0,1,1.755-1.95A8.8,8.8,0,0,1,6.65-19.149a13.3,13.3,0,0,1,3.49-.429,16.25,16.25,0,0,1,2.711.215,8.827,8.827,0,0,1,2.2.643,3.976,3.976,0,0,1,1.482,1.111,2.512,2.512,0,0,1,.546,1.619,3.327,3.327,0,0,1-.332,1.54,3.459,3.459,0,0,1-.838,1.073,4.782,4.782,0,0,0-.936-.409q-.624-.215-1.365-.39t-1.5-.292a9.173,9.173,0,0,0-1.385-.117,5.349,5.349,0,0,0-1.989.292.969.969,0,0,0-.7.917.825.825,0,0,0,.39.7,4.479,4.479,0,0,0,1.482.507l1.209.273a11.509,11.509,0,0,1,5.324,2.359A5.114,5.114,0,0,1,18.018-5.655ZM31.824-.585a4.167,4.167,0,0,1-1.482.761,7.492,7.492,0,0,1-2.223.292A7.728,7.728,0,0,1,25.35.02a2.669,2.669,0,0,1-1.56-1.268A21.784,21.784,0,0,1,22.8-4.212Q22.23-6.24,21.684-8.658T20.65-13.572q-.487-2.5-.76-4.407a4.833,4.833,0,0,1,1.463-.956,4.867,4.867,0,0,1,2.008-.41,3.868,3.868,0,0,1,2.243.6,2.831,2.831,0,0,1,1.073,2.087q.39,2.964.663,4.894T27.788-8.6q.175,1.229.273,1.872t.175,1.033h.156q.117-.624.41-1.813t.683-2.711q.39-1.521.819-3.3t.858-3.53a8.22,8.22,0,0,1,1.541-.663,6.524,6.524,0,0,1,1.892-.234,5.787,5.787,0,0,1,2.34.429,2.094,2.094,0,0,1,1.248,1.326q.468,1.716.9,3.335t.78,3q.351,1.385.624,2.457t.39,1.7h.195q.429-3,.839-6.24t.76-6.591a5.287,5.287,0,0,1,1.482-.624,6.411,6.411,0,0,1,1.56-.2,4.062,4.062,0,0,1,2.262.585,2.236,2.236,0,0,1,.9,2.028,13.318,13.318,0,0,1-.195,1.872q-.2,1.248-.507,2.808t-.721,3.276q-.41,1.716-.819,3.315t-.78,2.886Q45.474-1.287,45.2-.585a4.209,4.209,0,0,1-1.677.761,9.628,9.628,0,0,1-2.418.292q-3.276,0-3.861-1.638-.234-.7-.585-1.775T35.919-5.3q-.39-1.287-.741-2.671t-.585-2.672Q34.32-9.282,33.93-7.82t-.8,2.847q-.409,1.384-.76,2.535T31.824-.585ZM61.893.624A13.676,13.676,0,0,1,57.623-.02,9.677,9.677,0,0,1,54.191-1.95a8.941,8.941,0,0,1-2.3-3.237,11.48,11.48,0,0,1-.839-4.563,10.673,10.673,0,0,1,.839-4.427,8.747,8.747,0,0,1,2.2-3.042,8.808,8.808,0,0,1,3.12-1.755,11.629,11.629,0,0,1,3.588-.566,10.833,10.833,0,0,1,3.764.624A9.053,9.053,0,0,1,67.49-17.2,7.637,7.637,0,0,1,69.4-14.586a8,8,0,0,1,.683,3.315,2.661,2.661,0,0,1-.741,2.028,3.705,3.705,0,0,1-2.067.9L57.642-6.9A3.239,3.239,0,0,0,59.4-4.973a6.884,6.884,0,0,0,3.042.643,10.883,10.883,0,0,0,3.022-.409,9.608,9.608,0,0,0,2.321-.956A3.266,3.266,0,0,1,68.835-4.6a2.8,2.8,0,0,1,.429,1.482A2.783,2.783,0,0,1,67.626-.507a8.684,8.684,0,0,1-2.808.9A19.777,19.777,0,0,1,61.893.624ZM60.8-14.7a3.866,3.866,0,0,0-1.618.312,3.258,3.258,0,0,0-1.111.8,3.32,3.32,0,0,0-.643,1.092,4.5,4.5,0,0,0-.254,1.229l6.669-1.092a2.947,2.947,0,0,0-.858-1.56A2.873,2.873,0,0,0,60.8-14.7ZM83.3.624A13.676,13.676,0,0,1,79.034-.02,9.677,9.677,0,0,1,75.6-1.95a8.941,8.941,0,0,1-2.3-3.237,11.48,11.48,0,0,1-.839-4.563,10.673,10.673,0,0,1,.839-4.427,8.747,8.747,0,0,1,2.2-3.042,8.808,8.808,0,0,1,3.12-1.755,11.629,11.629,0,0,1,3.588-.566,10.833,10.833,0,0,1,3.764.624A9.053,9.053,0,0,1,88.9-17.2a7.637,7.637,0,0,1,1.911,2.613,8,8,0,0,1,.682,3.315,2.661,2.661,0,0,1-.741,2.028,3.705,3.705,0,0,1-2.067.9L79.053-6.9a3.239,3.239,0,0,0,1.755,1.93,6.884,6.884,0,0,0,3.042.643,10.883,10.883,0,0,0,3.022-.409,9.608,9.608,0,0,0,2.321-.956A3.266,3.266,0,0,1,90.246-4.6a2.8,2.8,0,0,1,.429,1.482A2.783,2.783,0,0,1,89.037-.507a8.684,8.684,0,0,1-2.808.9A19.777,19.777,0,0,1,83.3.624ZM82.212-14.7a3.866,3.866,0,0,0-1.618.312,3.258,3.258,0,0,0-1.111.8,3.32,3.32,0,0,0-.644,1.092,4.5,4.5,0,0,0-.254,1.229l6.669-1.092a2.947,2.947,0,0,0-.858-1.56A2.873,2.873,0,0,0,82.212-14.7Zm19.11,8.19a1.6,1.6,0,0,0,.644,1.443,3.253,3.253,0,0,0,1.813.429,7.83,7.83,0,0,0,1.209-.1,6.8,6.8,0,0,0,1.092-.253,4.767,4.767,0,0,1,.6.955,2.9,2.9,0,0,1,.254,1.268,3.015,3.015,0,0,1-1.112,2.418,6.2,6.2,0,0,1-3.919.936,7.984,7.984,0,0,1-5.285-1.56q-1.853-1.56-1.853-5.07V-22.737Q95.2-22.854,96-22.99a10.078,10.078,0,0,1,1.7-.137,4.988,4.988,0,0,1,2.672.6q.956.6.955,2.555v2.5h5.109a6.675,6.675,0,0,1,.449,1.073,4.481,4.481,0,0,1,.215,1.424,2.706,2.706,0,0,1-.6,1.969,2.187,2.187,0,0,1-1.618.6h-3.549Z" transform="translate(220 57)"/></g></svg>